<?xml version="1.0" standalone="no"?>
 <!DOCTYPE svg PUBLIC "-//W3C//DTD SVG 1.1//EN" 
 "http://www.w3.org/Graphics/SVG/1.1/DTD/svg11.dtd"> 
<svg
  xmlns:svg="http://www.w3.org/2000/svg"
  xmlns="http://www.w3.org/2000/svg"
  xmlns:xlink="http://www.w3.org/1999/xlink"
  version="1.1"
  width="17.856200mm" height="18.084800mm" viewBox="0.000000 0.000000 17.856200 18.084800">
<title>SVG Image created as external-iv9-socket-F_Cu.svg date 2025/08/17 17:51:47 </title>
  <desc>Image generated by PCBNEW </desc>
<g style="fill:#000000; fill-opacity:1.000000;stroke:#000000; stroke-opacity:1.000000;
stroke-linecap:round; stroke-linejoin:round;"
 transform="translate(0 0) scale(1 1)">
<path style="fill:#000000; fill-opacity:1.000000; stroke:none;fill-rule:evenodd;"
d="M 0.944200,15.275002
0.944200,16.975002
2.644200,16.975002
2.644200,15.275002
Z" /> 
</g>
<g style="fill:#000000; fill-opacity:1.000000; stroke:none;">
<circle cx="1.794200" cy="13.585002" r="0.850000" /> 
</g>
<g style="fill:#000000; fill-opacity:1.000000; stroke:none;">
<circle cx="1.794200" cy="11.045003" r="0.850000" /> 
</g>
<g style="fill:#000000; fill-opacity:1.000000; stroke:none;">
<circle cx="1.794200" cy="8.505002" r="0.850000" /> 
</g>
<g style="fill:#000000; fill-opacity:1.000000; stroke:none;">
<circle cx="1.794200" cy="5.965002" r="0.850000" /> 
</g>
<g style="fill:#000000; fill-opacity:1.000000; stroke:none;">
<circle cx="1.794200" cy="3.425002" r="0.850000" /> 
</g>
<g style="fill:#000000; fill-opacity:1.000000; stroke:none;">
<circle cx="10.449200" cy="11.925002" r="0.654000" /> 
</g>
<g style="fill:#000000; fill-opacity:1.000000; stroke:none;">
<circle cx="9.849200" cy="10.125002" r="0.654000" /> 
</g>
<g style="fill:#000000; fill-opacity:1.000000; stroke:none;">
<circle cx="7.049200" cy="9.725002" r="0.654000" /> 
</g>
<g style="fill:#000000; fill-opacity:1.000000; stroke:none;">
<circle cx="6.049200" cy="11.025002" r="0.654000" /> 
</g>
<g style="fill:#000000; fill-opacity:1.000000; stroke:none;">
<circle cx="5.903300" cy="8.147802" r="0.654000" /> 
</g>
<g style="fill:#000000; fill-opacity:1.000000; stroke:none;">
<circle cx="4.349200" cy="8.725002" r="0.654000" /> 
</g>
<g style="fill:#000000; fill-opacity:1.000000; stroke:none;">
<circle cx="5.903300" cy="6.198202" r="0.654000" /> 
</g>
<g style="fill:#000000; fill-opacity:1.000000; stroke:none;">
<circle cx="4.349200" cy="5.725002" r="0.654000" /> 
</g>
<g style="fill:#000000; fill-opacity:1.000000; stroke:none;">
<circle cx="7.049200" cy="4.621002" r="0.654000" /> 
</g>
<g style="fill:#000000; fill-opacity:1.000000; stroke:none;">
<circle cx="6.049200" cy="3.325002" r="0.654000" /> 
</g>
<g style="fill:#000000; fill-opacity:1.000000; stroke:none;">
<circle cx="8.903300" cy="4.018602" r="0.654000" /> 
</g>
<g style="fill:#000000; fill-opacity:1.000000; stroke:none;">
<circle cx="8.849200" cy="2.325002" r="0.654000" /> 
</g>
<g style="fill:#000000; fill-opacity:1.000000; stroke:none;">
<circle cx="12.049200" cy="3.525002" r="0.654000" /> 
</g>
<g style="fill:#000000; fill-opacity:1.000000; stroke:none;">
<circle cx="10.757400" cy="4.621002" r="0.654000" /> 
</g>
<g style="fill:#000000; fill-opacity:1.000000; stroke:none;">
<circle cx="13.549200" cy="5.925002" r="0.654000" /> 
</g>
<g style="fill:#000000; fill-opacity:1.000000; stroke:none;">
<circle cx="11.903300" cy="6.198202" r="0.654000" /> 
</g>
<g style="fill:#000000; fill-opacity:1.000000; stroke:none;">
<circle cx="13.449200" cy="8.725002" r="0.654000" /> 
</g>
<g style="fill:#000000; fill-opacity:1.000000; stroke:none;">
<circle cx="11.903300" cy="8.147802" r="0.654000" /> 
</g>
<g style="fill:#000000; fill-opacity:1.000000; stroke:none;">
<circle cx="16.061200" cy="3.415002" r="0.850000" /> 
</g>
<g style="fill:#000000; fill-opacity:1.000000; stroke:none;">
<circle cx="16.061200" cy="5.955002" r="0.850000" /> 
</g>
<g style="fill:#000000; fill-opacity:1.000000; stroke:none;">
<circle cx="16.061200" cy="8.495002" r="0.850000" /> 
</g>
<g style="fill:#000000; fill-opacity:1.000000; stroke:none;">
<circle cx="16.061200" cy="11.035002" r="0.850000" /> 
</g>
<g style="fill:none; 
stroke:#000000; stroke-width:1.000000; stroke-opacity:1; 
stroke-linecap:round; stroke-linejoin:round;">
<path d="M10.345200 11.821002
L10.449200 11.925002
" />
<path d="M9.849200 10.125002
L9.849200 10.419002
" />
<path d="M6.049200 11.025002
L6.049200 10.725002
" />
<path d="M1.805200 11.025002
L1.795200 11.035002
" />
<path d="M6.049200 11.025002
L1.805200 11.025002
" />
<path d="M6.049200 10.725002
L7.049200 9.725002
" />
<path d="M5.330100 5.625002
L5.903300 6.198202
" />
<path d="M1.795200 5.955002
L4.019200 5.955002
" />
<path d="M4.349200 5.625002
L5.330100 5.625002
" />
<path d="M4.019200 5.955002
L4.349200 5.625002
" />
<path d="M6.259200 16.115002
L10.449200 11.925002
" />
<path d="M1.795200 16.115002
L6.259200 16.115002
" />
<path d="M4.349200 8.825002
L5.226100 8.825002
" />
<path d="M1.795200 8.495002
L4.019200 8.495002
" />
<path d="M4.019200 8.495002
L4.349200 8.825002
" />
<path d="M5.226100 8.825002
L5.903300 8.147802
" />
<path d="M15.919724 5.955002
L16.061200 5.955002
" />
<path d="M11.552400 3.826002
L13.790724 3.826002
" />
<path d="M10.757400 4.621002
L11.552400 3.826002
" />
<path d="M13.790724 3.826002
L15.919724 5.955002
" />
<path d="M16.061200 3.415002
L14.427933 1.781735
" />
<path d="M12.295211 1.777064
L9.397138 1.777064
" />
<path d="M8.903300 4.018602
L8.903300 2.695914
" />
<path d="M14.427933 1.781735
L12.295211 1.777064
" />
<path d="M8.903300 2.695914
L8.972612 2.626602
" />
<path d="M9.397138 1.777064
L8.849200 2.325002
" />
<path d="M15.859200 11.035002
L13.649200 8.825002
" />
<path d="M16.061200 11.035002
L15.859200 11.035002
" />
<path d="M12.580500 8.825002
L11.903300 8.147802
" />
<path d="M13.649200 8.825002
L12.580500 8.825002
" />
<path d="M13.397505 6.198202
L11.903300 6.198202
" />
<path d="M16.061200 8.495002
L15.694305 8.495002
" />
<path d="M15.694305 8.495002
L13.397505 6.198202
" />
<path d="M6.049200 3.621002
L7.049200 4.621002
" />
<path d="M5.959200 3.415002
L6.049200 3.325002
" />
<path d="M6.049200 3.325002
L6.049200 3.621002
" />
<path d="M1.795200 3.415002
L5.959200 3.415002
" />
<path d="M10.449200 10.725002
L9.849200 10.125002
" />
<path d="M10.449200 11.925002
L10.449200 10.725002
" />
<path style="fill:#000000; fill-opacity:1.000000; stroke:none;fill-rule:evenodd;"
d="M 4.764058,10.523755
4.756258,10.528152
4.753766,10.535370
4.753766,11.514633
4.757193,11.522906
4.764059,11.526248
5.910861,11.665134
5.919486,11.662727
5.923740,11.655820
6.049739,11.027301
6.049739,11.022702
5.923739,10.394182
5.918754,10.386746
5.910864,10.384869
Z" /> 
<path style="fill:#000000; fill-opacity:1.000000; stroke:none;fill-rule:evenodd;"
d="M 6.429054,9.638906
6.428644,9.639337
5.514480,10.651626
5.511478,10.660063
5.515321,10.668151
5.516648,10.669186
6.048464,11.025689
6.048493,11.025709
6.582167,11.381142
6.590953,11.382876
6.598391,11.377890
6.599009,11.376848
7.140007,10.344928
7.140813,10.336010
7.137919,10.331225
6.445599,9.638905
6.437327,9.635479
Z" /> 
<path style="fill:#000000; fill-opacity:1.000000; stroke:none;fill-rule:evenodd;"
d="M 6.498738,9.370181
5.786034,10.279298
5.783627,10.287923
5.786969,10.294789
6.479413,10.987233
6.487686,10.990660
6.494904,10.988168
7.388128,10.287923
7.404022,10.275463
7.408418,10.267663
7.406542,10.259771
7.051204,9.726241
7.047961,9.722998
6.514431,9.367660
6.505646,9.365927
Z" /> 
<path style="fill:#000000; fill-opacity:1.000000; stroke:none;fill-rule:evenodd;"
d="M 4.852051,5.131110
4.846000,5.137711
4.845294,5.141715
4.845294,6.119744
4.848721,6.128017
4.849224,6.128492
5.529931,6.733078
5.538393,6.736010
5.546449,6.732100
5.547421,6.730843
5.902995,6.200149
5.904754,6.195901
6.028949,5.566598
6.027188,5.557818
6.021475,5.553339
4.860998,5.130721
Z" /> 
<path style="fill:#000000; fill-opacity:1.000000; stroke:none;fill-rule:evenodd;"
d="M 4.209075,5.087705
3.104218,5.452351
3.097437,5.458198
3.096186,5.463461
3.096186,6.442527
3.099613,6.450800
3.107886,6.454227
3.108635,6.454203
4.361248,6.373848
4.463478,6.367289
4.471514,6.363341
4.474404,6.354865
4.474209,6.353360
4.350200,5.725002
4.224207,5.096516
4.219222,5.089080
4.210436,5.087346
Z" /> 
<path style="fill:#000000; fill-opacity:1.000000; stroke:none;fill-rule:evenodd;"
d="M 4.480099,5.088083
4.474522,5.095090
4.474296,5.096021
4.348953,5.722000
4.348952,5.726589
4.474432,6.354636
4.479413,6.362078
4.488197,6.363817
4.488518,6.363748
5.195676,6.201715
5.201336,6.198584
5.892022,5.507898
5.895449,5.499625
5.892022,5.491352
5.886979,5.488379
4.488996,5.087072
Z" /> 
<path style="fill:#000000; fill-opacity:1.000000; stroke:none;fill-rule:evenodd;"
d="M 4.479004,8.087319
4.474642,8.094318
4.348952,8.723414
4.348953,8.728003
4.474158,9.353295
4.479142,9.360734
4.487927,9.362470
4.489455,9.362055
5.857934,8.888717
5.864632,8.882774
5.865166,8.873835
5.862384,8.869389
5.171297,8.178302
5.164569,8.174979
4.487656,8.085012
Z" /> 
<path style="fill:#000000; fill-opacity:1.000000; stroke:none;fill-rule:evenodd;"
d="M 5.352764,7.792209
4.891252,8.321698
4.888372,8.329385
4.888372,9.306748
4.891799,9.315021
4.900072,9.318448
4.904958,9.317379
6.254198,8.697302
6.260284,8.690734
6.259943,8.681785
6.259055,8.680194
5.905597,8.149747
5.902358,8.146506
5.368072,7.790163
5.359291,7.788425
Z" /> 
<path style="fill:#000000; fill-opacity:1.000000; stroke:none;fill-rule:evenodd;"
d="M 12.180914,2.888927
12.174640,2.895316
12.174017,2.897396
12.048200,3.525002
12.048193,3.525037
11.924059,4.154034
11.925820,4.162814
11.933273,4.167778
11.934166,4.167918
13.259732,4.324458
13.268350,4.322025
13.272723,4.314211
13.272804,4.312839
13.272804,3.333896
13.269377,3.325623
13.265484,3.323047
12.189867,2.888847
Z" /> 
<path style="fill:#000000; fill-opacity:1.000000; stroke:none;fill-rule:evenodd;"
d="M 11.498640,3.168473
10.693150,3.978103
10.689744,3.986384
10.693171,3.994627
11.385508,4.686964
11.393781,4.690391
11.399889,4.688670
11.402676,4.686964
12.402176,4.075129
12.407442,4.067888
12.406046,4.059043
12.405822,4.058690
12.051204,3.526241
12.047961,3.522998
11.513419,3.166986
11.504634,3.165253
Z" /> 
<path style="fill:#000000; fill-opacity:1.000000; stroke:none;fill-rule:evenodd;"
d="M 11.706080,3.335864
10.405020,4.071026
10.399503,4.078079
10.400590,4.086968
10.401040,4.087700
10.755102,4.619053
10.758346,4.622299
11.291273,4.977736
11.300057,4.979475
11.307499,4.974494
11.307586,4.974361
11.535530,4.619053
11.721682,4.328888
11.723534,4.322570
11.723534,3.346051
11.720107,3.337778
11.711834,3.334351
Z" /> 
<path style="fill:#000000; fill-opacity:1.000000; stroke:none;fill-rule:evenodd;"
d="M 15.147243,4.487894
14.453473,5.181664
14.450046,5.189937
14.452311,5.196855
15.347836,6.418214
15.355491,6.422860
15.363760,6.421032
16.059959,5.957007
16.063206,5.953760
16.083478,5.923346
16.526401,5.258807
16.528137,5.250024
16.523153,5.242584
16.522361,5.242100
15.161196,4.485938
15.152302,4.484917
Z" /> 
<path style="fill:#000000; fill-opacity:1.000000; stroke:none;fill-rule:evenodd;"
d="M 15.217570,1.877567
14.523766,2.571371
14.520339,2.579644
14.522183,2.585948
15.348027,3.877192
15.355371,3.882315
15.364187,3.880744
15.364372,3.880624
16.059959,3.417007
16.063206,3.413760
16.526823,2.718173
16.528560,2.709388
16.523576,2.701948
16.523517,2.701909
15.232145,1.875983
15.223331,1.874413
Z" /> 
<path style="fill:#000000; fill-opacity:1.000000; stroke:none;fill-rule:evenodd;"
d="M 8.218876,2.450363
8.211439,2.455349
8.209638,2.463767
8.401665,3.610668
8.406411,3.618262
8.413204,3.620436
9.392443,3.620436
9.400716,3.617009
9.404110,3.609609
9.489863,2.462903
9.487063,2.454397
9.480498,2.450558
8.851500,2.324463
8.846900,2.324463
Z" /> 
<path style="fill:#000000; fill-opacity:1.000000; stroke:none;fill-rule:evenodd;"
d="M 8.405395,2.726595
8.402053,2.733461
8.263168,3.880262
8.265575,3.888887
8.272483,3.893141
8.901000,4.019140
8.905600,4.019140
9.534118,3.893141
9.541556,3.888155
9.543433,3.880264
9.404547,2.733459
9.400150,2.725660
9.392932,2.723168
8.413668,2.723168
Z" /> 
<path style="fill:#000000; fill-opacity:1.000000; stroke:none;fill-rule:evenodd;"
d="M 9.902206,1.282319
8.731308,1.680272
8.724578,1.686179
8.723594,1.693615
8.847747,2.322701
8.849506,2.326949
9.205288,2.857954
9.212740,2.862919
9.221521,2.861161
9.222529,2.860403
9.913491,2.280570
9.917626,2.272627
9.917670,2.271608
9.917670,1.293398
9.914243,1.285125
9.905970,1.281698
Z" /> 
<path style="fill:#000000; fill-opacity:1.000000; stroke:none;fill-rule:evenodd;"
d="M 15.117148,9.597989
14.423413,10.291724
14.419986,10.299997
14.422445,10.307174
15.347777,11.498642
15.355559,11.503074
15.363507,11.501201
16.059959,11.037007
16.063206,11.033760
16.526215,10.339086
16.527952,10.330301
16.522968,10.322861
16.521908,10.322233
15.130834,9.595890
15.121917,9.595099
Z" /> 
<path style="fill:#000000; fill-opacity:1.000000; stroke:none;fill-rule:evenodd;"
d="M 13.984499,8.367308
13.450443,8.722996
13.447195,8.726244
13.196471,9.102699
13.092227,9.259219
13.090493,9.268005
13.095304,9.275324
14.053628,9.939005
14.062380,9.940898
14.068562,9.937659
14.760976,9.245245
14.764403,9.236972
14.761462,9.229215
13.999739,8.369287
13.991690,8.365368
Z" /> 
<path style="fill:#000000; fill-opacity:1.000000; stroke:none;fill-rule:evenodd;"
d="M 12.438528,7.790163
11.904246,8.146504
11.901002,8.149750
11.784225,8.325002
11.547553,8.680183
11.545817,8.688968
11.550801,8.696407
11.552403,8.697302
12.901642,9.317379
12.910591,9.317720
12.917159,9.311634
12.918228,9.306748
12.918228,8.329385
12.915349,8.321698
12.453837,7.792209
12.445819,7.788225
Z" /> 
<path style="fill:#000000; fill-opacity:1.000000; stroke:none;fill-rule:evenodd;"
d="M 12.636289,8.169205
12.629467,8.172542
11.938359,8.863650
11.934932,8.871923
11.938359,8.880196
11.942761,8.882964
13.308911,9.361982
13.317852,9.361486
13.323823,9.354812
13.324254,9.353238
13.418419,8.882964
13.449449,8.728001
13.449449,8.723416
13.323742,8.094231
13.318762,8.086792
13.310821,8.084916
Z" /> 
<path style="fill:#000000; fill-opacity:1.000000; stroke:none;fill-rule:evenodd;"
d="M 12.033015,5.560476
12.028761,5.567384
11.902762,6.195902
11.902762,6.200502
12.028761,6.829019
12.033747,6.836457
12.041640,6.838334
13.188441,6.699448
13.196242,6.695051
13.198734,6.687833
13.198734,5.708570
13.195307,5.700297
13.188443,5.696955
12.041638,5.558069
Z" /> 
<path style="fill:#000000; fill-opacity:1.000000; stroke:none;fill-rule:evenodd;"
d="M 13.408739,5.288387
12.321678,5.695357
12.315131,5.701467
12.314080,5.706314
12.314080,6.685315
12.317507,6.693588
12.325780,6.697015
12.326906,6.696961
13.663936,6.567678
13.671841,6.563470
13.674456,6.554906
13.674289,6.553767
13.550207,5.925037
13.550200,5.925002
13.424313,5.297043
13.419327,5.289606
13.410541,5.287872
Z" /> 
<path style="fill:#000000; fill-opacity:1.000000; stroke:none;fill-rule:evenodd;"
d="M 14.083154,5.568445
14.081251,5.569471
13.548493,5.924295
13.548499,5.924303
13.548466,5.924313
13.053490,6.256120
13.015924,6.281303
13.010960,6.288756
13.012721,6.297536
13.013256,6.298271
13.840428,7.346057
13.848244,7.350427
13.856861,7.347990
13.857884,7.347080
14.550102,6.654862
14.553529,6.646589
14.552595,6.642009
14.402310,6.288756
14.098500,5.574630
14.092108,5.568359
Z" /> 
<path style="fill:#000000; fill-opacity:1.000000; stroke:none;fill-rule:evenodd;"
d="M 15.062595,7.167377
14.368953,7.861019
14.365526,7.869292
14.368549,7.877140
15.347682,8.959752
15.355773,8.963589
15.362848,8.961640
16.059959,8.497007
16.063206,8.493760
16.479422,7.869292
16.525630,7.799964
16.527366,7.791181
16.522382,7.783741
16.520499,7.782721
15.075468,7.164891
15.066513,7.164791
Z" /> 
<path style="fill:#000000; fill-opacity:1.000000; stroke:none;fill-rule:evenodd;"
d="M 6.583222,2.968233
6.582195,2.968843
6.048493,3.324295
6.048499,3.324303
6.048466,3.324313
5.787173,3.499471
5.516672,3.680802
5.511708,3.688255
5.513469,3.697035
5.514520,3.698380
6.431470,4.709530
6.439566,4.713356
6.447997,4.710337
6.448410,4.709943
7.140729,4.017624
7.144156,4.009351
7.142806,4.003896
6.599028,2.973120
6.592138,2.967403
Z" /> 
<path style="fill:#000000; fill-opacity:1.000000; stroke:none;fill-rule:evenodd;"
d="M 6.479413,3.358770
5.786969,4.051214
5.783542,4.059487
5.786034,4.066705
6.498738,4.975822
6.506539,4.980219
6.514432,4.978342
6.658966,4.882081
7.047958,4.623007
7.051206,4.619759
7.406542,4.086232
7.408275,4.077447
7.404023,4.070541
6.494902,3.357834
6.486279,3.355428
Z" /> 
<path style="fill:#000000; fill-opacity:1.000000; stroke:none;fill-rule:evenodd;"
d="M 4.763192,2.913134
4.755742,2.918104
4.753766,2.924611
4.753766,3.903805
4.757193,3.912078
4.764951,3.915494
5.911595,3.965994
5.920011,3.962934
5.923582,3.956605
5.931824,3.915494
6.049739,3.327301
6.049739,3.322702
5.968007,2.915002
5.923906,2.695013
5.918920,2.687576
5.910161,2.685837
Z" /> 
<path style="fill:#000000; fill-opacity:1.000000; stroke:none;fill-rule:evenodd;"
d="M 1.962762,10.215400
1.957732,10.222808
1.957717,10.222880
1.793660,11.042707
1.793660,11.047299
1.957658,11.866831
1.962642,11.874271
1.971427,11.876008
1.971786,11.875930
3.468822,11.527109
3.476102,11.521894
3.477867,11.515714
3.477867,10.534531
3.474440,10.526258
3.468537,10.523073
1.971556,10.213718
Z" /> 
<path style="fill:#000000; fill-opacity:1.000000; stroke:none;fill-rule:evenodd;"
d="M 1.962810,5.135432
1.957733,5.142809
1.957703,5.142953
1.793660,5.962706
1.793660,5.967298
1.957673,6.786904
1.962657,6.794344
1.971442,6.796081
1.971730,6.796019
3.468751,6.457066
3.476063,6.451897
3.477867,6.445655
3.477867,5.464470
3.474440,5.456197
3.468609,5.453027
1.971616,5.133806
Z" /> 
<path style="fill:#000000; fill-opacity:1.000000; stroke:none;fill-rule:evenodd;"
d="M 2.642405,15.277974
2.638746,15.280450
1.801513,16.116699
1.798081,16.124970
1.801503,16.133245
1.801537,16.133279
2.638657,16.964508
2.646942,16.967906
2.651409,16.967002
3.031891,16.808090
3.487009,16.618005
3.493323,16.611655
3.494200,16.607209
3.494200,15.622923
3.490773,15.614650
3.486845,15.612060
2.651358,15.277865
Z" /> 
<path style="fill:#000000; fill-opacity:1.000000; stroke:none;fill-rule:evenodd;"
d="M 1.962810,7.675432
1.957733,7.682809
1.957703,7.682953
1.793660,8.502706
1.793660,8.507298
1.957673,9.326904
1.962657,9.334344
1.971442,9.336081
1.971730,9.336019
3.468751,8.997066
3.476063,8.991897
3.477867,8.985655
3.477867,8.004470
3.474440,7.996197
3.468609,7.993027
1.971616,7.673806
Z" /> 
<path style="fill:#000000; fill-opacity:1.000000; stroke:none;fill-rule:evenodd;"
d="M 1.962810,2.595432
1.957733,2.602809
1.957703,2.602953
1.793660,3.422706
1.793660,3.427298
1.957673,4.246904
1.962657,4.254344
1.971442,4.256081
1.971730,4.256019
3.468751,3.917066
3.476063,3.911897
3.477867,3.905655
3.477867,2.924470
3.474440,2.916197
3.468609,2.913027
1.971616,2.593806
Z" /> 
<path style="fill:#000000; fill-opacity:1.000000; stroke:none;fill-rule:evenodd;"
d="M 9.898738,11.570181
9.186034,12.479298
9.183627,12.487923
9.186969,12.494789
9.879413,13.187233
9.887686,13.190660
9.894904,13.188168
10.788128,12.487923
10.804022,12.475463
10.808418,12.467663
10.806542,12.459771
10.451204,11.926241
10.447961,11.922998
9.914431,11.567660
9.905646,11.565927
Z" /> 
<path style="fill:#000000; fill-opacity:1.000000; stroke:none;fill-rule:evenodd;"
d="M 10.444427,10.006532
9.851501,10.123548
9.847253,10.125307
9.316893,10.480657
9.311928,10.488109
9.313686,10.496890
9.314889,10.498399
9.945736,11.168229
9.953902,11.171902
9.954253,11.171907
10.932072,11.171907
10.940345,11.168480
10.943772,11.160207
10.942971,11.155952
10.686238,10.498399
10.494194,10.006530
10.487994,10.000071
10.481032,9.999308
Z" /> 
<path style="fill:#000000; fill-opacity:1.000000; stroke:none;fill-rule:evenodd;"
d="M 10.720464,10.318774
10.030332,11.008906
10.027339,11.014021
9.811174,11.785255
9.812241,11.794146
9.819282,11.799679
9.820148,11.799886
10.447613,11.925250
10.452202,11.925249
11.078742,11.799794
11.086181,11.794810
11.087917,11.786025
11.087834,11.785643
10.740119,10.324337
10.734870,10.317083
10.726029,10.315665
Z" /> 
</g>
<g style="fill:#FFFFFF; fill-opacity:1.000000; stroke:none;">
<circle cx="1.794200" cy="16.125002" r="0.500000" /> 
</g>
<g style="fill:#FFFFFF; fill-opacity:1.000000; stroke:none;">
<circle cx="1.794200" cy="13.585002" r="0.500000" /> 
</g>
<g style="fill:#FFFFFF; fill-opacity:1.000000; stroke:none;">
<circle cx="1.794200" cy="11.045003" r="0.500000" /> 
</g>
<g style="fill:#FFFFFF; fill-opacity:1.000000; stroke:none;">
<circle cx="1.794200" cy="8.505002" r="0.500000" /> 
</g>
<g style="fill:#FFFFFF; fill-opacity:1.000000; stroke:none;">
<circle cx="1.794200" cy="5.965002" r="0.500000" /> 
</g>
<g style="fill:#FFFFFF; fill-opacity:1.000000; stroke:none;">
<circle cx="1.794200" cy="3.425002" r="0.500000" /> 
</g>
<g style="fill:#FFFFFF; fill-opacity:1.000000; stroke:none;">
<circle cx="10.449200" cy="11.925002" r="0.400000" /> 
</g>
<g style="fill:#FFFFFF; fill-opacity:1.000000; stroke:none;">
<circle cx="6.049200" cy="11.025002" r="0.400000" /> 
</g>
<g style="fill:#FFFFFF; fill-opacity:1.000000; stroke:none;">
<circle cx="4.349200" cy="8.725002" r="0.400000" /> 
</g>
<g style="fill:#FFFFFF; fill-opacity:1.000000; stroke:none;">
<circle cx="4.349200" cy="5.725002" r="0.400000" /> 
</g>
<g style="fill:#FFFFFF; fill-opacity:1.000000; stroke:none;">
<circle cx="6.049200" cy="3.325002" r="0.400000" /> 
</g>
<g style="fill:#FFFFFF; fill-opacity:1.000000; stroke:none;">
<circle cx="8.849200" cy="2.325002" r="0.400000" /> 
</g>
<g style="fill:#FFFFFF; fill-opacity:1.000000; stroke:none;">
<circle cx="12.049200" cy="3.525002" r="0.400000" /> 
</g>
<g style="fill:#FFFFFF; fill-opacity:1.000000; stroke:none;">
<circle cx="13.549200" cy="5.925002" r="0.400000" /> 
</g>
<g style="fill:#FFFFFF; fill-opacity:1.000000; stroke:none;">
<circle cx="13.449200" cy="8.725002" r="0.400000" /> 
</g>
<g style="fill:#FFFFFF; fill-opacity:1.000000; stroke:none;">
<circle cx="16.061200" cy="3.415002" r="0.500000" /> 
</g>
<g style="fill:#FFFFFF; fill-opacity:1.000000; stroke:none;">
<circle cx="16.061200" cy="5.955002" r="0.500000" /> 
</g>
<g style="fill:#FFFFFF; fill-opacity:1.000000; stroke:none;">
<circle cx="16.061200" cy="8.495002" r="0.500000" /> 
</g>
<g style="fill:#FFFFFF; fill-opacity:1.000000; stroke:none;">
<circle cx="16.061200" cy="11.035002" r="0.500000" /> 
<path style="fill:none; 
stroke:#000000; stroke-width:0.050000; stroke-opacity:1; 
stroke-linecap:round; stroke-linejoin:round;fill:none"
d="M 0.025200,0.076010
0.025200,18.042923
17.795200,18.072923
17.825084,0.025000
Z" /> 
</g>
<g style="fill:#000000; fill-opacity:1.000000; stroke:none;">
<circle cx="1.794200" cy="16.125002" r="0.500000" /> 
</g>
<g style="fill:#000000; fill-opacity:1.000000; stroke:none;">
<circle cx="1.794200" cy="13.585002" r="0.500000" /> 
</g>
<g style="fill:#000000; fill-opacity:1.000000; stroke:none;">
<circle cx="1.794200" cy="11.045003" r="0.500000" /> 
</g>
<g style="fill:#000000; fill-opacity:1.000000; stroke:none;">
<circle cx="1.794200" cy="8.505002" r="0.500000" /> 
</g>
<g style="fill:#000000; fill-opacity:1.000000; stroke:none;">
<circle cx="1.794200" cy="5.965002" r="0.500000" /> 
</g>
<g style="fill:#000000; fill-opacity:1.000000; stroke:none;">
<circle cx="1.794200" cy="3.425002" r="0.500000" /> 
</g>
<g style="fill:#000000; fill-opacity:1.000000; stroke:none;">
<circle cx="10.449200" cy="11.925002" r="0.400000" /> 
</g>
<g style="fill:#000000; fill-opacity:1.000000; stroke:none;">
<circle cx="6.049200" cy="11.025002" r="0.400000" /> 
</g>
<g style="fill:#000000; fill-opacity:1.000000; stroke:none;">
<circle cx="4.349200" cy="8.725002" r="0.400000" /> 
</g>
<g style="fill:#000000; fill-opacity:1.000000; stroke:none;">
<circle cx="4.349200" cy="5.725002" r="0.400000" /> 
</g>
<g style="fill:#000000; fill-opacity:1.000000; stroke:none;">
<circle cx="6.049200" cy="3.325002" r="0.400000" /> 
</g>
<g style="fill:#000000; fill-opacity:1.000000; stroke:none;">
<circle cx="8.849200" cy="2.325002" r="0.400000" /> 
</g>
<g style="fill:#000000; fill-opacity:1.000000; stroke:none;">
<circle cx="12.049200" cy="3.525002" r="0.400000" /> 
</g>
<g style="fill:#000000; fill-opacity:1.000000; stroke:none;">
<circle cx="13.549200" cy="5.925002" r="0.400000" /> 
</g>
<g style="fill:#000000; fill-opacity:1.000000; stroke:none;">
<circle cx="13.449200" cy="8.725002" r="0.400000" /> 
</g>
<g style="fill:#000000; fill-opacity:1.000000; stroke:none;">
<circle cx="16.061200" cy="3.415002" r="0.500000" /> 
</g>
<g style="fill:#000000; fill-opacity:1.000000; stroke:none;">
<circle cx="16.061200" cy="5.955002" r="0.500000" /> 
</g>
<g style="fill:#000000; fill-opacity:1.000000; stroke:none;">
<circle cx="16.061200" cy="8.495002" r="0.500000" /> 
</g>
<g style="fill:#000000; fill-opacity:1.000000; stroke:none;">
<circle cx="16.061200" cy="11.035002" r="0.500000" /> 
</g>
<g style="fill:#FFFFFF; fill-opacity:1.000000; stroke:none;">
<circle cx="1.794200" cy="16.125002" r="0.500000" /> 
</g>
<g style="fill:#FFFFFF; fill-opacity:1.000000; stroke:none;">
<circle cx="1.794200" cy="13.585002" r="0.500000" /> 
</g>
<g style="fill:#FFFFFF; fill-opacity:1.000000; stroke:none;">
<circle cx="1.794200" cy="11.045003" r="0.500000" /> 
</g>
<g style="fill:#FFFFFF; fill-opacity:1.000000; stroke:none;">
<circle cx="1.794200" cy="8.505002" r="0.500000" /> 
</g>
<g style="fill:#FFFFFF; fill-opacity:1.000000; stroke:none;">
<circle cx="1.794200" cy="5.965002" r="0.500000" /> 
</g>
<g style="fill:#FFFFFF; fill-opacity:1.000000; stroke:none;">
<circle cx="1.794200" cy="3.425002" r="0.500000" /> 
</g>
<g style="fill:#FFFFFF; fill-opacity:1.000000; stroke:none;">
<circle cx="10.449200" cy="11.925002" r="0.400000" /> 
</g>
<g style="fill:#FFFFFF; fill-opacity:1.000000; stroke:none;">
<circle cx="6.049200" cy="11.025002" r="0.400000" /> 
</g>
<g style="fill:#FFFFFF; fill-opacity:1.000000; stroke:none;">
<circle cx="4.349200" cy="8.725002" r="0.400000" /> 
</g>
<g style="fill:#FFFFFF; fill-opacity:1.000000; stroke:none;">
<circle cx="4.349200" cy="5.725002" r="0.400000" /> 
</g>
<g style="fill:#FFFFFF; fill-opacity:1.000000; stroke:none;">
<circle cx="6.049200" cy="3.325002" r="0.400000" /> 
</g>
<g style="fill:#FFFFFF; fill-opacity:1.000000; stroke:none;">
<circle cx="8.849200" cy="2.325002" r="0.400000" /> 
</g>
<g style="fill:#FFFFFF; fill-opacity:1.000000; stroke:none;">
<circle cx="12.049200" cy="3.525002" r="0.400000" /> 
</g>
<g style="fill:#FFFFFF; fill-opacity:1.000000; stroke:none;">
<circle cx="13.549200" cy="5.925002" r="0.400000" /> 
</g>
<g style="fill:#FFFFFF; fill-opacity:1.000000; stroke:none;">
<circle cx="13.449200" cy="8.725002" r="0.400000" /> 
</g>
<g style="fill:#FFFFFF; fill-opacity:1.000000; stroke:none;">
<circle cx="16.061200" cy="3.415002" r="0.500000" /> 
</g>
<g style="fill:#FFFFFF; fill-opacity:1.000000; stroke:none;">
<circle cx="16.061200" cy="5.955002" r="0.500000" /> 
</g>
<g style="fill:#FFFFFF; fill-opacity:1.000000; stroke:none;">
<circle cx="16.061200" cy="8.495002" r="0.500000" /> 
</g>
<g style="fill:#FFFFFF; fill-opacity:1.000000; stroke:none;">
<circle cx="16.061200" cy="11.035002" r="0.500000" /> 
</g> 
</svg>
