<?xml version="1.0" standalone="no"?>
 <!DOCTYPE svg PUBLIC "-//W3C//DTD SVG 1.1//EN" 
 "http://www.w3.org/Graphics/SVG/1.1/DTD/svg11.dtd"> 
<svg
  xmlns:svg="http://www.w3.org/2000/svg"
  xmlns="http://www.w3.org/2000/svg"
  xmlns:xlink="http://www.w3.org/1999/xlink"
  version="1.1"
  width="17.8562mm" height="17.1958mm" viewBox="0.0000 0.0000 17.8562 17.1958">
<title>SVG Image created as external-iv9-socket-F_Cu.svg date 2025/07/24 23:57:38 </title>
  <desc>Image generated by PCBNEW </desc>
<g style="fill:#000000; fill-opacity:1.0000;stroke:#000000; stroke-opacity:1.0000;
stroke-linecap:round; stroke-linejoin:round;"
 transform="translate(0 0) scale(1 1)">
</g>
<g style="fill:#000000; fill-opacity:1.0000; stroke:none;">
<circle cx="13.4473" cy="8.0008" r="0.6540" /> 
</g>
<g style="fill:#000000; fill-opacity:1.0000; stroke:none;">
<circle cx="11.9014" cy="7.4236" r="0.6540" /> 
</g>
<g style="fill:#000000; fill-opacity:1.0000; stroke:none;">
<circle cx="9.8473" cy="9.4008" r="0.6540" /> 
</g>
<g style="fill:#000000; fill-opacity:1.0000; stroke:none;">
<circle cx="10.4473" cy="11.2008" r="0.6540" /> 
</g>
<g style="fill:#000000; fill-opacity:1.0000; stroke:none;">
<circle cx="13.5473" cy="5.2008" r="0.6540" /> 
</g>
<g style="fill:#000000; fill-opacity:1.0000; stroke:none;">
<circle cx="11.9014" cy="5.4740" r="0.6540" /> 
</g>
<g style="fill:#000000; fill-opacity:1.0000; stroke:none;">
<circle cx="12.0473" cy="2.8008" r="0.6540" /> 
</g>
<g style="fill:#000000; fill-opacity:1.0000; stroke:none;">
<circle cx="10.7555" cy="3.8968" r="0.6540" /> 
</g>
<g style="fill:#000000; fill-opacity:1.0000; stroke:none;">
<circle cx="8.9014" cy="3.2944" r="0.6540" /> 
</g>
<g style="fill:#000000; fill-opacity:1.0000; stroke:none;">
<circle cx="7.0473" cy="3.8968" r="0.6540" /> 
</g>
<g style="fill:#000000; fill-opacity:1.0000; stroke:none;">
<circle cx="5.9014" cy="5.4740" r="0.6540" /> 
</g>
<g style="fill:#000000; fill-opacity:1.0000; stroke:none;">
<circle cx="5.9014" cy="7.4236" r="0.6540" /> 
</g>
<g style="fill:#000000; fill-opacity:1.0000; stroke:none;">
<circle cx="7.0473" cy="9.0008" r="0.6540" /> 
</g>
<g style="fill:#000000; fill-opacity:1.0000; stroke:none;">
<circle cx="6.0473" cy="10.3008" r="0.6540" /> 
</g>
<g style="fill:#000000; fill-opacity:1.0000; stroke:none;">
<circle cx="4.3473" cy="8.0008" r="0.6540" /> 
</g>
<g style="fill:#000000; fill-opacity:1.0000; stroke:none;">
<circle cx="4.3473" cy="5.0008" r="0.6540" /> 
</g>
<g style="fill:#000000; fill-opacity:1.0000; stroke:none;">
<circle cx="6.0473" cy="2.6008" r="0.6540" /> 
</g>
<g style="fill:#000000; fill-opacity:1.0000; stroke:none;">
<circle cx="8.8473" cy="1.6008" r="0.6540" /> 
</g>
<g style="fill:#000000; fill-opacity:1.0000; stroke:none;">
<circle cx="16.0593" cy="2.6908" r="0.8500" /> 
</g>
<g style="fill:#000000; fill-opacity:1.0000; stroke:none;">
<circle cx="16.0593" cy="5.2308" r="0.8500" /> 
</g>
<g style="fill:#000000; fill-opacity:1.0000; stroke:none;">
<circle cx="16.0593" cy="7.7708" r="0.8500" /> 
</g>
<g style="fill:#000000; fill-opacity:1.0000; stroke:none;">
<circle cx="16.0593" cy="10.3108" r="0.8500" /> 
<path style="fill:#000000; fill-opacity:1.0000; stroke:none;fill-rule:evenodd;"
d="M 2.6433,16.2408
2.6433,14.5408
0.9433,14.5408
0.9433,16.2408
Z" /> 
</g>
<g style="fill:#000000; fill-opacity:1.0000; stroke:none;">
<circle cx="1.7933" cy="10.3108" r="0.8500" /> 
</g>
<g style="fill:#000000; fill-opacity:1.0000; stroke:none;">
<circle cx="1.7933" cy="7.7708" r="0.8500" /> 
</g>
<g style="fill:#000000; fill-opacity:1.0000; stroke:none;">
<circle cx="1.7933" cy="5.2308" r="0.8500" /> 
</g>
<g style="fill:#000000; fill-opacity:1.0000; stroke:none;">
<circle cx="1.7933" cy="2.6908" r="0.8500" /> 
</g>
<g style="fill:none; 
stroke:#000000; stroke-width:1.0000; stroke-opacity:1; 
stroke-linecap:round; stroke-linejoin:round;">
<path d="M9.3952 1.0529
L8.8473 1.6008
" />
<path d="M12.2933 1.0529
L9.3952 1.0529
" />
<path d="M14.4260 1.0575
L12.2933 1.0529
" />
<path d="M16.0593 2.6908
L14.4260 1.0575
" />
<path d="M6.2573 15.3908
L10.4473 11.2008
" />
<path d="M1.7933 15.3908
L6.2573 15.3908
" />
<path d="M13.7888 3.1018
L15.9178 5.2308
" />
<path d="M15.9178 5.2308
L16.0593 5.2308
" />
<path d="M11.5505 3.1018
L13.7888 3.1018
" />
<path d="M10.7555 3.8968
L11.5505 3.1018
" />
<path d="M15.6924 7.7708
L13.3956 5.4740
" />
<path d="M16.0593 7.7708
L15.6924 7.7708
" />
<path d="M13.3956 5.4740
L11.9014 5.4740
" />
<path d="M13.6473 8.1008
L12.5786 8.1008
" />
<path d="M12.5786 8.1008
L11.9014 7.4236
" />
<path d="M9.8473 10.6008
L10.4473 11.2008
" />
<path d="M9.8473 9.4008
L9.8473 10.6008
" />
<path d="M8.9014 1.9717
L8.9707 1.9024
" />
<path d="M8.9014 3.2944
L8.9014 1.9717
" />
<path d="M6.0473 2.8968
L7.0473 3.8968
" />
<path d="M6.0473 2.6008
L6.0473 2.8968
" />
<path d="M5.3282 4.9008
L5.9014 5.4740
" />
<path d="M4.3473 4.9008
L5.3282 4.9008
" />
<path d="M5.2242 8.1008
L5.9014 7.4236
" />
<path d="M4.3473 8.1008
L5.2242 8.1008
" />
<path d="M6.0473 10.0008
L7.0473 9.0008
" />
<path d="M6.0473 10.3008
L6.0473 10.0008
" />
<path d="M15.8573 10.3108
L13.6473 8.1008
" />
<path d="M16.0593 10.3108
L15.8573 10.3108
" />
<path d="M5.9573 2.6908
L6.0473 2.6008
" />
<path d="M1.7933 2.6908
L5.9573 2.6908
" />
<path d="M4.0173 5.2308
L4.3473 4.9008
" />
<path d="M1.7933 5.2308
L4.0173 5.2308
" />
<path d="M4.0173 7.7708
L4.3473 8.1008
" />
<path d="M1.7933 7.7708
L4.0173 7.7708
" />
<path d="M1.8033 10.3008
L1.7933 10.3108
" />
<path d="M6.0473 10.3008
L1.8033 10.3008
" />
<path style="fill:#000000; fill-opacity:1.0000; stroke:none;fill-rule:evenodd;"
d="M 1.9619,9.4812
1.9568,9.4886
1.9568,9.4888
1.7928,10.3085
1.7928,10.3131
1.9568,11.1327
1.9618,11.1402
1.9705,11.1419
1.9708,11.1418
3.4679,10.8029
3.4752,10.7977
3.4770,10.7915
3.4770,9.8103
3.4735,9.8020
3.4677,9.7988
1.9707,9.4796
Z" /> 
<path style="fill:#000000; fill-opacity:1.0000; stroke:none;fill-rule:evenodd;"
d="M 1.9620,6.9413
1.9568,6.9486
1.9568,6.9488
1.7928,7.7685
1.7928,7.7731
1.9568,8.5928
1.9618,8.6002
1.9706,8.6020
1.9708,8.6019
3.4678,8.2728
3.4751,8.2677
3.4770,8.2614
3.4770,7.2802
3.4735,7.2719
3.4678,7.2688
1.9708,6.9397
Z" /> 
<path style="fill:#000000; fill-opacity:1.0000; stroke:none;fill-rule:evenodd;"
d="M 1.9620,4.4013
1.9568,4.4086
1.9568,4.4088
1.7928,5.2285
1.7928,5.2331
1.9568,6.0528
1.9618,6.0602
1.9706,6.0620
1.9708,6.0619
3.4678,5.7328
3.4751,5.7277
3.4770,5.7214
3.4770,4.7402
3.4735,4.7319
3.4678,4.7288
1.9708,4.3997
Z" /> 
<path style="fill:#000000; fill-opacity:1.0000; stroke:none;fill-rule:evenodd;"
d="M 1.9620,1.8613
1.9568,1.8686
1.9568,1.8688
1.7928,2.6885
1.7928,2.6931
1.9568,3.5128
1.9618,3.5202
1.9706,3.5220
1.9708,3.5219
3.4678,3.1928
3.4751,3.1877
3.4770,3.1814
3.4770,2.2002
3.4735,2.1919
3.4678,2.1888
1.9708,1.8597
Z" /> 
<path style="fill:#000000; fill-opacity:1.0000; stroke:none;fill-rule:evenodd;"
d="M 15.1153,8.8738
14.4215,9.5675
14.4181,9.5758
14.4205,9.5830
15.3459,10.7745
15.3537,10.7789
15.3616,10.7770
16.0581,10.3128
16.0613,10.3096
16.5243,9.6149
16.5261,9.6061
16.5211,9.5987
16.5200,9.5980
15.1289,8.8717
15.1200,8.8709
Z" /> 
<path style="fill:#000000; fill-opacity:1.0000; stroke:none;fill-rule:evenodd;"
d="M 15.0607,6.4432
14.3671,7.1368
14.3636,7.1451
14.3667,7.1530
15.3458,8.2356
15.3539,8.2394
15.3610,8.2375
16.0581,7.7728
16.0613,7.7696
16.4775,7.1451
16.5237,7.0758
16.5255,7.0670
16.5205,7.0596
16.5186,7.0585
15.0736,6.4407
15.0646,6.4406
Z" /> 
<path style="fill:#000000; fill-opacity:1.0000; stroke:none;fill-rule:evenodd;"
d="M 15.1453,3.7637
14.4516,4.4575
14.4482,4.4658
14.4504,4.4727
15.3459,5.6940
15.3536,5.6987
15.3619,5.6968
16.0581,5.2328
16.0613,5.2296
16.0816,5.1992
16.5245,4.5346
16.5262,4.5258
16.5213,4.5184
16.5205,4.5179
15.1593,3.7618
15.1504,3.7607
Z" /> 
<path style="fill:#000000; fill-opacity:1.0000; stroke:none;fill-rule:evenodd;"
d="M 2.6416,14.5438
2.6378,14.5463
2.2959,14.8878
1.8006,15.3825
1.7972,15.3908
1.8006,15.3991
1.8006,15.3991
2.6378,16.2353
2.6461,16.2387
2.6505,16.2378
3.4861,15.8938
3.4924,15.8875
3.4933,15.8830
3.4933,14.8987
3.4899,14.8904
3.4861,14.8878
2.6505,14.5438
Z" /> 
<path style="fill:#000000; fill-opacity:1.0000; stroke:none;fill-rule:evenodd;"
d="M 9.8968,10.8460
9.1841,11.7551
9.1817,11.7637
9.1851,11.7706
9.8775,12.4630
9.8858,12.4665
9.8930,12.4640
10.7862,11.7637
10.8021,11.7513
10.8065,11.7435
10.8046,11.7356
10.4493,11.2021
10.4461,11.1988
9.9125,10.8435
9.9037,10.8417
Z" /> 
<path style="fill:#000000; fill-opacity:1.0000; stroke:none;fill-rule:evenodd;"
d="M 12.1790,2.1647
12.1727,2.1711
12.1721,2.1732
12.0463,2.8008
12.0463,2.8009
11.9222,3.4298
11.9239,3.4386
11.9314,3.4436
11.9323,3.4437
13.2578,3.6003
13.2665,3.5978
13.2708,3.5900
13.2709,3.5887
13.2709,2.6097
13.2675,2.6014
13.2636,2.5989
12.1880,2.1647
Z" /> 
<path style="fill:#000000; fill-opacity:1.0000; stroke:none;fill-rule:evenodd;"
d="M 11.4967,2.4443
10.6913,3.2539
10.6878,3.2622
10.6913,3.2704
11.3836,3.9628
11.3919,3.9662
11.3980,3.9645
11.4008,3.9628
12.4003,3.3509
12.4055,3.3437
12.4041,3.3349
12.4039,3.3345
12.0493,2.8021
12.0461,2.7988
11.5115,2.4428
11.5027,2.4411
Z" /> 
<path style="fill:#000000; fill-opacity:1.0000; stroke:none;fill-rule:evenodd;"
d="M 14.0813,4.8443
14.0794,4.8453
13.5466,5.2001
13.5466,5.2001
13.5466,5.2001
13.0516,5.5319
13.0140,5.5571
13.0091,5.5646
13.0108,5.5733
13.0114,5.5741
13.8385,6.6219
13.8463,6.6262
13.8550,6.6238
13.8560,6.6229
14.5482,5.9307
14.5516,5.9224
14.5507,5.9178
14.4004,5.5646
14.0966,4.8504
14.0902,4.8442
Z" /> 
<path style="fill:#000000; fill-opacity:1.0000; stroke:none;fill-rule:evenodd;"
d="M 13.4068,4.5642
12.3198,4.9712
12.3132,4.9773
12.3122,4.9821
12.3122,5.9611
12.3156,5.9694
12.3239,5.9728
12.3250,5.9728
13.6620,5.8435
13.6699,5.8393
13.6726,5.8307
13.6724,5.8296
13.5483,5.2009
13.5483,5.2008
13.4224,4.5729
13.4174,4.5654
13.4086,4.5637
Z" /> 
<path style="fill:#000000; fill-opacity:1.0000; stroke:none;fill-rule:evenodd;"
d="M 12.6344,7.4450
12.6276,7.4484
11.9365,8.1395
11.9330,8.1477
11.9365,8.1560
11.9409,8.1588
13.3070,8.6378
13.3160,8.6373
13.3219,8.6306
13.3224,8.6291
13.4165,8.1588
13.4476,8.0038
13.4476,7.9992
13.3218,7.3700
13.3169,7.3626
13.3089,7.3607
Z" /> 
<path style="fill:#000000; fill-opacity:1.0000; stroke:none;fill-rule:evenodd;"
d="M 9.3562,10.1573
9.3527,10.1656
9.3535,10.1699
9.8023,11.3193
9.8085,11.3257
9.8155,11.3265
10.4450,11.2023
10.4493,11.2005
10.9796,10.8452
10.9846,10.8377
10.9828,10.8289
10.9816,10.8274
10.3508,10.1576
10.3426,10.1539
10.3423,10.1539
9.3644,10.1539
Z" /> 
<path style="fill:#000000; fill-opacity:1.0000; stroke:none;fill-rule:evenodd;"
d="M 6.5813,2.2440
6.5803,2.2447
6.0466,2.6001
6.0466,2.6001
6.0466,2.6001
5.7853,2.7753
5.5148,2.9566
5.5098,2.9641
5.5116,2.9728
5.5126,2.9742
6.4296,3.9853
6.4377,3.9892
6.4461,3.9862
6.4465,3.9858
7.1388,3.2934
7.1423,3.2852
7.1409,3.2797
6.5971,2.2489
6.5902,2.2432
Z" /> 
<path style="fill:#000000; fill-opacity:1.0000; stroke:none;fill-rule:evenodd;"
d="M 4.4782,4.3639
4.4726,4.3709
4.4724,4.3718
4.3471,4.9978
4.3471,5.0024
4.4725,5.6304
4.4775,5.6379
4.4863,5.6396
4.4866,5.6396
5.1938,5.4775
5.1994,5.4744
5.8901,4.7837
5.8936,4.7754
5.8901,4.7672
5.8851,4.7642
4.4871,4.3629
Z" /> 
<path style="fill:#000000; fill-opacity:1.0000; stroke:none;fill-rule:evenodd;"
d="M 4.4771,7.3631
4.4727,7.3701
4.3471,7.9992
4.3471,8.0038
4.4723,8.6291
4.4772,8.6365
4.4860,8.6383
4.4876,8.6379
5.8560,8.1645
5.8627,8.1586
5.8633,8.1496
5.8605,8.1452
5.1694,7.4541
5.1627,7.4508
4.4858,7.3608
Z" /> 
<path style="fill:#000000; fill-opacity:1.0000; stroke:none;fill-rule:evenodd;"
d="M 6.4272,8.9147
6.4267,8.9152
5.5126,9.9274
5.5096,9.9359
5.5134,9.9440
5.5148,9.9450
6.0466,10.3015
6.0466,10.3015
6.5803,10.6570
6.5891,10.6587
6.5965,10.6537
6.5971,10.6527
7.1381,9.6207
7.1389,9.6118
7.1360,9.6070
6.4437,8.9147
6.4354,8.9113
Z" /> 
<path style="fill:#000000; fill-opacity:1.0000; stroke:none;fill-rule:evenodd;"
d="M 13.9826,7.6431
13.4485,7.9988
13.4453,8.0021
13.1946,8.3785
13.0903,8.5350
13.0886,8.5438
13.0934,8.5511
14.0517,9.2148
14.0605,9.2167
14.0667,9.2135
14.7591,8.5211
14.7625,8.5128
14.7596,8.5050
13.9978,7.6451
13.9898,7.6412
Z" /> 
<path style="fill:#000000; fill-opacity:1.0000; stroke:none;fill-rule:evenodd;"
d="M 4.7613,2.1889
4.7538,2.1939
4.7519,2.2004
4.7519,3.1796
4.7553,3.1879
4.7631,3.1913
5.9097,3.2418
5.9181,3.2387
5.9217,3.2324
5.9299,3.1913
6.0478,2.6031
6.0478,2.5985
5.9661,2.1908
5.9220,1.9708
5.9170,1.9634
5.9083,1.9617
Z" /> 
<path style="fill:#000000; fill-opacity:1.0000; stroke:none;fill-rule:evenodd;"
d="M 4.2072,4.3635
3.1023,4.7282
3.0955,4.7340
3.0943,4.7393
3.0943,5.7183
3.0977,5.7266
3.1060,5.7300
3.1067,5.7300
4.3594,5.6497
4.4616,5.6431
4.4696,5.6392
4.4725,5.6307
4.4723,5.6292
4.3483,5.0008
4.2223,4.3723
4.2173,4.3649
4.2085,4.3632
Z" /> 
<path style="fill:#000000; fill-opacity:1.0000; stroke:none;fill-rule:evenodd;"
d="M 3.0983,7.2745
3.0943,7.2825
3.0943,7.2833
3.0943,8.2624
3.0977,8.2706
3.1023,8.2735
4.2072,8.6381
4.2161,8.6374
4.2220,8.6307
4.2223,8.6293
4.3483,8.0008
4.4723,7.3725
4.4705,7.3637
4.4631,7.3587
4.4616,7.3585
3.1067,7.2716
Z" /> 
<path style="fill:#000000; fill-opacity:1.0000; stroke:none;fill-rule:evenodd;"
d="M 4.7622,9.7996
4.7544,9.8040
4.7519,9.8112
4.7519,10.7904
4.7553,10.7987
4.7622,10.8021
5.9090,10.9409
5.9176,10.9385
5.9218,10.9316
6.0478,10.3031
6.0478,10.2985
5.9218,9.6700
5.9169,9.6626
5.9090,9.6607
Z" /> 
<path style="fill:#000000; fill-opacity:1.0000; stroke:none;fill-rule:evenodd;"
d="M 9.9003,0.5581
8.7294,0.9561
8.7227,0.9620
8.7217,0.9694
8.8459,1.5985
8.8476,1.6028
9.2034,2.1338
9.2108,2.1387
9.2196,2.1370
9.2206,2.1362
9.9116,1.5564
9.9157,1.5484
9.9158,1.5474
9.9158,0.5692
9.9123,0.5609
9.9041,0.5575
Z" /> 
<path style="fill:#000000; fill-opacity:1.0000; stroke:none;fill-rule:evenodd;"
d="M 15.2157,1.1534
14.5219,1.8472
14.5184,1.8555
14.5203,1.8618
15.3461,3.1530
15.3535,3.1581
15.3623,3.1566
15.3625,3.1564
16.0581,2.6928
16.0613,2.6896
16.5249,1.9940
16.5267,1.9852
16.5217,1.9778
16.5216,1.9777
15.2302,1.1518
15.2214,1.1502
Z" /> 
<path style="fill:#000000; fill-opacity:1.0000; stroke:none;fill-rule:evenodd;"
d="M 8.2170,1.7262
8.2095,1.7312
8.2077,1.7396
8.3998,2.8865
8.4045,2.8941
8.4113,2.8962
9.3905,2.8962
9.3988,2.8928
9.4022,2.8854
9.4880,1.7387
9.4852,1.7302
9.4786,1.7264
8.8496,1.6003
8.8450,1.6003
Z" /> 
</g>
<g style="fill:#FFFFFF; fill-opacity:1.0000; stroke:none;">
<circle cx="13.4473" cy="8.0008" r="0.4000" /> 
</g>
<g style="fill:#FFFFFF; fill-opacity:1.0000; stroke:none;">
<circle cx="10.4473" cy="11.2008" r="0.4000" /> 
</g>
<g style="fill:#FFFFFF; fill-opacity:1.0000; stroke:none;">
<circle cx="13.5473" cy="5.2008" r="0.4000" /> 
</g>
<g style="fill:#FFFFFF; fill-opacity:1.0000; stroke:none;">
<circle cx="12.0473" cy="2.8008" r="0.4000" /> 
</g>
<g style="fill:#FFFFFF; fill-opacity:1.0000; stroke:none;">
<circle cx="6.0473" cy="10.3008" r="0.4000" /> 
</g>
<g style="fill:#FFFFFF; fill-opacity:1.0000; stroke:none;">
<circle cx="4.3473" cy="8.0008" r="0.4000" /> 
</g>
<g style="fill:#FFFFFF; fill-opacity:1.0000; stroke:none;">
<circle cx="4.3473" cy="5.0008" r="0.4000" /> 
</g>
<g style="fill:#FFFFFF; fill-opacity:1.0000; stroke:none;">
<circle cx="6.0473" cy="2.6008" r="0.4000" /> 
</g>
<g style="fill:#FFFFFF; fill-opacity:1.0000; stroke:none;">
<circle cx="8.8473" cy="1.6008" r="0.4000" /> 
</g>
<g style="fill:#FFFFFF; fill-opacity:1.0000; stroke:none;">
<circle cx="16.0593" cy="2.6908" r="0.5000" /> 
</g>
<g style="fill:#FFFFFF; fill-opacity:1.0000; stroke:none;">
<circle cx="16.0593" cy="5.2308" r="0.5000" /> 
</g>
<g style="fill:#FFFFFF; fill-opacity:1.0000; stroke:none;">
<circle cx="16.0593" cy="7.7708" r="0.5000" /> 
</g>
<g style="fill:#FFFFFF; fill-opacity:1.0000; stroke:none;">
<circle cx="16.0593" cy="10.3108" r="0.5000" /> 
</g>
<g style="fill:#FFFFFF; fill-opacity:1.0000; stroke:none;">
<circle cx="1.7933" cy="15.3908" r="0.5000" /> 
</g>
<g style="fill:#FFFFFF; fill-opacity:1.0000; stroke:none;">
<circle cx="1.7933" cy="10.3108" r="0.5000" /> 
</g>
<g style="fill:#FFFFFF; fill-opacity:1.0000; stroke:none;">
<circle cx="1.7933" cy="7.7708" r="0.5000" /> 
</g>
<g style="fill:#FFFFFF; fill-opacity:1.0000; stroke:none;">
<circle cx="1.7933" cy="5.2308" r="0.5000" /> 
</g>
<g style="fill:#FFFFFF; fill-opacity:1.0000; stroke:none;">
<circle cx="1.7933" cy="2.6908" r="0.5000" /> 
</g>
<g style="fill:none; 
stroke:#000000; stroke-width:0.8000; stroke-opacity:1; 
stroke-linecap:round; stroke-linejoin:round;">
<path d="M12.2183 12.6908
L12.2183 16.0908
" />
<path d="M12.2183 16.0908
L10.9183 14.8908
" />
<path d="M12.2183 16.0908
L13.5683 14.8908
" />
</g>
<g style="fill:#000000; fill-opacity:1.0000; stroke:none;">
<circle cx="13.4473" cy="8.0008" r="0.4000" /> 
</g>
<g style="fill:#000000; fill-opacity:1.0000; stroke:none;">
<circle cx="10.4473" cy="11.2008" r="0.4000" /> 
</g>
<g style="fill:#000000; fill-opacity:1.0000; stroke:none;">
<circle cx="13.5473" cy="5.2008" r="0.4000" /> 
</g>
<g style="fill:#000000; fill-opacity:1.0000; stroke:none;">
<circle cx="12.0473" cy="2.8008" r="0.4000" /> 
</g>
<g style="fill:#000000; fill-opacity:1.0000; stroke:none;">
<circle cx="6.0473" cy="10.3008" r="0.4000" /> 
</g>
<g style="fill:#000000; fill-opacity:1.0000; stroke:none;">
<circle cx="4.3473" cy="8.0008" r="0.4000" /> 
</g>
<g style="fill:#000000; fill-opacity:1.0000; stroke:none;">
<circle cx="4.3473" cy="5.0008" r="0.4000" /> 
</g>
<g style="fill:#000000; fill-opacity:1.0000; stroke:none;">
<circle cx="6.0473" cy="2.6008" r="0.4000" /> 
</g>
<g style="fill:#000000; fill-opacity:1.0000; stroke:none;">
<circle cx="8.8473" cy="1.6008" r="0.4000" /> 
</g>
<g style="fill:#000000; fill-opacity:1.0000; stroke:none;">
<circle cx="16.0593" cy="2.6908" r="0.5000" /> 
</g>
<g style="fill:#000000; fill-opacity:1.0000; stroke:none;">
<circle cx="16.0593" cy="5.2308" r="0.5000" /> 
</g>
<g style="fill:#000000; fill-opacity:1.0000; stroke:none;">
<circle cx="16.0593" cy="7.7708" r="0.5000" /> 
</g>
<g style="fill:#000000; fill-opacity:1.0000; stroke:none;">
<circle cx="16.0593" cy="10.3108" r="0.5000" /> 
</g>
<g style="fill:#000000; fill-opacity:1.0000; stroke:none;">
<circle cx="1.7933" cy="15.3908" r="0.5000" /> 
</g>
<g style="fill:#000000; fill-opacity:1.0000; stroke:none;">
<circle cx="1.7933" cy="10.3108" r="0.5000" /> 
</g>
<g style="fill:#000000; fill-opacity:1.0000; stroke:none;">
<circle cx="1.7933" cy="7.7708" r="0.5000" /> 
</g>
<g style="fill:#000000; fill-opacity:1.0000; stroke:none;">
<circle cx="1.7933" cy="5.2308" r="0.5000" /> 
</g>
<g style="fill:#000000; fill-opacity:1.0000; stroke:none;">
<circle cx="1.7933" cy="2.6908" r="0.5000" /> 
<path style="fill:none; 
stroke:#000000; stroke-width:0.0500; stroke-opacity:1; 
stroke-linecap:round; stroke-linejoin:round;fill:none"
d="M 0.0233,17.1608
17.7933,17.1908
17.8312,0.0640
0.0233,0.0250
Z" /> 
</g>
<g style="fill:#000000; fill-opacity:1.0000; stroke:none;">
<circle cx="13.4473" cy="8.0008" r="0.4000" /> 
</g>
<g style="fill:#000000; fill-opacity:1.0000; stroke:none;">
<circle cx="10.4473" cy="11.2008" r="0.4000" /> 
</g>
<g style="fill:#000000; fill-opacity:1.0000; stroke:none;">
<circle cx="13.5473" cy="5.2008" r="0.4000" /> 
</g>
<g style="fill:#000000; fill-opacity:1.0000; stroke:none;">
<circle cx="12.0473" cy="2.8008" r="0.4000" /> 
</g>
<g style="fill:#000000; fill-opacity:1.0000; stroke:none;">
<circle cx="6.0473" cy="10.3008" r="0.4000" /> 
</g>
<g style="fill:#000000; fill-opacity:1.0000; stroke:none;">
<circle cx="4.3473" cy="8.0008" r="0.4000" /> 
</g>
<g style="fill:#000000; fill-opacity:1.0000; stroke:none;">
<circle cx="4.3473" cy="5.0008" r="0.4000" /> 
</g>
<g style="fill:#000000; fill-opacity:1.0000; stroke:none;">
<circle cx="6.0473" cy="2.6008" r="0.4000" /> 
</g>
<g style="fill:#000000; fill-opacity:1.0000; stroke:none;">
<circle cx="8.8473" cy="1.6008" r="0.4000" /> 
</g>
<g style="fill:#000000; fill-opacity:1.0000; stroke:none;">
<circle cx="16.0593" cy="2.6908" r="0.5000" /> 
</g>
<g style="fill:#000000; fill-opacity:1.0000; stroke:none;">
<circle cx="16.0593" cy="5.2308" r="0.5000" /> 
</g>
<g style="fill:#000000; fill-opacity:1.0000; stroke:none;">
<circle cx="16.0593" cy="7.7708" r="0.5000" /> 
</g>
<g style="fill:#000000; fill-opacity:1.0000; stroke:none;">
<circle cx="16.0593" cy="10.3108" r="0.5000" /> 
</g>
<g style="fill:#000000; fill-opacity:1.0000; stroke:none;">
<circle cx="1.7933" cy="15.3908" r="0.5000" /> 
</g>
<g style="fill:#000000; fill-opacity:1.0000; stroke:none;">
<circle cx="1.7933" cy="10.3108" r="0.5000" /> 
</g>
<g style="fill:#000000; fill-opacity:1.0000; stroke:none;">
<circle cx="1.7933" cy="7.7708" r="0.5000" /> 
</g>
<g style="fill:#000000; fill-opacity:1.0000; stroke:none;">
<circle cx="1.7933" cy="5.2308" r="0.5000" /> 
</g>
<g style="fill:#000000; fill-opacity:1.0000; stroke:none;">
<circle cx="1.7933" cy="2.6908" r="0.5000" /> 
</g>
<g style="fill:#FFFFFF; fill-opacity:1.0000; stroke:none;">
<circle cx="13.4473" cy="8.0008" r="0.4000" /> 
</g>
<g style="fill:#FFFFFF; fill-opacity:1.0000; stroke:none;">
<circle cx="10.4473" cy="11.2008" r="0.4000" /> 
</g>
<g style="fill:#FFFFFF; fill-opacity:1.0000; stroke:none;">
<circle cx="13.5473" cy="5.2008" r="0.4000" /> 
</g>
<g style="fill:#FFFFFF; fill-opacity:1.0000; stroke:none;">
<circle cx="12.0473" cy="2.8008" r="0.4000" /> 
</g>
<g style="fill:#FFFFFF; fill-opacity:1.0000; stroke:none;">
<circle cx="6.0473" cy="10.3008" r="0.4000" /> 
</g>
<g style="fill:#FFFFFF; fill-opacity:1.0000; stroke:none;">
<circle cx="4.3473" cy="8.0008" r="0.4000" /> 
</g>
<g style="fill:#FFFFFF; fill-opacity:1.0000; stroke:none;">
<circle cx="4.3473" cy="5.0008" r="0.4000" /> 
</g>
<g style="fill:#FFFFFF; fill-opacity:1.0000; stroke:none;">
<circle cx="6.0473" cy="2.6008" r="0.4000" /> 
</g>
<g style="fill:#FFFFFF; fill-opacity:1.0000; stroke:none;">
<circle cx="8.8473" cy="1.6008" r="0.4000" /> 
</g>
<g style="fill:#FFFFFF; fill-opacity:1.0000; stroke:none;">
<circle cx="16.0593" cy="2.6908" r="0.5000" /> 
</g>
<g style="fill:#FFFFFF; fill-opacity:1.0000; stroke:none;">
<circle cx="16.0593" cy="5.2308" r="0.5000" /> 
</g>
<g style="fill:#FFFFFF; fill-opacity:1.0000; stroke:none;">
<circle cx="16.0593" cy="7.7708" r="0.5000" /> 
</g>
<g style="fill:#FFFFFF; fill-opacity:1.0000; stroke:none;">
<circle cx="16.0593" cy="10.3108" r="0.5000" /> 
</g>
<g style="fill:#FFFFFF; fill-opacity:1.0000; stroke:none;">
<circle cx="1.7933" cy="15.3908" r="0.5000" /> 
</g>
<g style="fill:#FFFFFF; fill-opacity:1.0000; stroke:none;">
<circle cx="1.7933" cy="10.3108" r="0.5000" /> 
</g>
<g style="fill:#FFFFFF; fill-opacity:1.0000; stroke:none;">
<circle cx="1.7933" cy="7.7708" r="0.5000" /> 
</g>
<g style="fill:#FFFFFF; fill-opacity:1.0000; stroke:none;">
<circle cx="1.7933" cy="5.2308" r="0.5000" /> 
</g>
<g style="fill:#FFFFFF; fill-opacity:1.0000; stroke:none;">
<circle cx="1.7933" cy="2.6908" r="0.5000" /> 
</g> 
</svg>
