{"buffers":[{"uri":"Stojan na hodinky v2.gltf.bin","byteLength":2328}],"asset":{"version":"2.0","generator":"gltfpack 0.16"},"bufferViews":[{"buffer":0,"byteOffset":0,"byteLength":1008,"byteStride":12,"target":34962},{"buffer":0,"byteOffset":1008,"byteLength":1008,"byteStride":12,"target":34962},{"buffer":0,"byteOffset":2016,"byteLength":312,"target":34963}],"accessors":[{"bufferView":0,"byteOffset":0,"componentType":5126,"count":84,"type":"VEC3","min":[0,0,0],"max":[0.0599999987,0.061999999,0.0856216326]},{"bufferView":1,"byteOffset":0,"componentType":5126,"count":84,"type":"VEC3"},{"bufferView":2,"byteOffset":0,"componentType":5123,"count":156,"type":"SCALAR"}],"materials":[{"pbrMetallicRoughness":{"baseColorFactor":[0.43921569,0.501960814,0.564705908,1],"metallicFactor":0,"roughnessFactor":0},"doubleSided":true}],"meshes":[{"primitives":[{"attributes":{"POSITION":0,"NORMAL":1},"mode":4,"indices":2,"material":0}]}],"nodes":[{"mesh":0},{"children":[0]}],"scenes":[{"nodes":[1]}]}